<svg width="19" height="19" viewBox="0 0 19 19" fill="none" xmlns="http://www.w3.org/2000/svg">
<path d="M17.8958 17.0419L12.9792 12.1148C14.0702 10.7857 14.6083 9.08785 14.482 7.37291C14.3557 5.65797 13.5747 4.0573 12.3006 2.90241C11.0266 1.74751 9.35715 1.12687 7.63808 1.16901C5.91901 1.21114 4.282 1.91284 3.06607 3.12877C1.85014 4.3447 1.14845 5.98171 1.10631 7.70078C1.06417 9.41985 1.68481 11.0893 2.83971 12.3633C3.9946 13.6374 5.59527 14.4184 7.31021 14.5447C9.02515 14.671 10.723 14.1329 12.0521 13.0419L16.9792 17.9585L17.8958 17.0419ZM7.80207 13.2606C6.73488 13.2606 5.69165 12.9441 4.80431 12.3512C3.91697 11.7583 3.22537 10.9156 2.81697 9.92967C2.40858 8.94371 2.30172 7.85879 2.50992 6.8121C2.71812 5.76541 3.23202 4.80396 3.98664 4.04934C4.74126 3.29472 5.70271 2.78082 6.7494 2.57262C7.79609 2.36442 8.88101 2.47128 9.86697 2.87967C10.8529 3.28807 11.6956 3.97967 12.2885 4.86701C12.8814 5.75435 13.1979 6.79758 13.1979 7.86477C13.1979 9.29584 12.6294 10.6683 11.6175 11.6802C10.6056 12.6921 9.23314 13.2606 7.80207 13.2606Z" fill="#99A2AD" stroke="#99A2AD"/>
</svg>
