<svg width="25" height="25" viewBox="0 0 25 25" fill="none" xmlns="http://www.w3.org/2000/svg">
<path d="M7.30033 13.8105H4.69617V16.406H7.30033V13.8105Z" fill="#99A2AD"/>
<path d="M20.3125 4.73947V3.48947C20.3125 3.12112 20.1662 2.76785 19.9057 2.50738C19.6452 2.24691 19.2919 2.10059 18.9236 2.10059C18.5552 2.10059 18.202 2.24691 17.9415 2.50738C17.681 2.76785 17.5347 3.12112 17.5347 3.48947V4.71343H16.493V3.48947C16.493 3.12112 16.3467 2.76785 16.0862 2.50738C15.8258 2.24691 15.4725 2.10059 15.1041 2.10059C14.7358 2.10059 14.3825 2.24691 14.1221 2.50738C13.8616 2.76785 13.7153 3.12112 13.7153 3.48947V4.71343H11.2847V3.48947C11.2847 3.12112 11.1384 2.76785 10.8779 2.50738C10.6174 2.24691 10.2642 2.10059 9.89581 2.10059C9.52746 2.10059 9.17419 2.24691 8.91372 2.50738C8.65325 2.76785 8.50692 3.12112 8.50692 3.48947V4.71343H7.29165V3.48947C7.29165 3.12112 7.14532 2.76785 6.88485 2.50738C6.62438 2.24691 6.27111 2.10059 5.90276 2.10059C5.5344 2.10059 5.18113 2.24691 4.92066 2.50738C4.6602 2.76785 4.51387 3.12112 4.51387 3.48947V4.75684C3.84407 4.84309 3.22839 5.16965 2.78132 5.6758C2.33424 6.18196 2.0862 6.83325 2.08331 7.50857L2.08331 20.1041C2.08331 20.4726 2.15618 20.8375 2.29773 21.1777C2.43928 21.518 2.64672 21.8269 2.90812 22.0867C3.16951 22.3465 3.4797 22.552 3.82083 22.6914C4.16196 22.8309 4.52729 22.9015 4.89581 22.8992H20.1128C20.8549 22.8992 21.5668 22.605 22.0924 22.081C22.6179 21.5571 22.9143 20.8462 22.9166 20.1041V7.50857C22.9138 6.80308 22.6434 6.12495 22.1601 5.61102C21.6767 5.09709 21.0165 4.78562 20.3125 4.73947ZM18.4028 3.48947C18.4028 3.35134 18.4576 3.21887 18.5553 3.12119C18.653 3.02351 18.7855 2.96864 18.9236 2.96864C19.0617 2.96864 19.1942 3.02351 19.2919 3.12119C19.3896 3.21887 19.4444 3.35134 19.4444 3.48947V6.25857C19.4444 6.39671 19.3896 6.52918 19.2919 6.62686C19.1942 6.72453 19.0617 6.77941 18.9236 6.77941C18.7855 6.77941 18.653 6.72453 18.5553 6.62686C18.4576 6.52918 18.4028 6.39671 18.4028 6.25857V3.48947ZM14.5833 3.48947C14.5833 3.35134 14.6382 3.21887 14.7359 3.12119C14.8335 3.02351 14.966 2.96864 15.1041 2.96864C15.2423 2.96864 15.3748 3.02351 15.4724 3.12119C15.5701 3.21887 15.625 3.35134 15.625 3.48947V6.25857C15.625 6.39671 15.5701 6.52918 15.4724 6.62686C15.3748 6.72453 15.2423 6.77941 15.1041 6.77941C14.966 6.77941 14.8335 6.72453 14.7359 6.62686C14.6382 6.52918 14.5833 6.39671 14.5833 6.25857V3.48947ZM9.37498 3.48947C9.39143 3.36181 9.45381 3.24451 9.55047 3.15951C9.64713 3.0745 9.77144 3.02762 9.90015 3.02762C10.0289 3.02762 10.1532 3.0745 10.2498 3.15951C10.3465 3.24451 10.4089 3.36181 10.4253 3.48947V6.25857C10.4089 6.38623 10.3465 6.50354 10.2498 6.58854C10.1532 6.67354 10.0289 6.72043 9.90015 6.72043C9.77144 6.72043 9.64713 6.67354 9.55047 6.58854C9.45381 6.50354 9.39143 6.38623 9.37498 6.25857V3.48947ZM5.38192 3.48947C5.40426 3.36763 5.46861 3.25748 5.56377 3.17818C5.65893 3.09888 5.77888 3.05545 5.90276 3.05545C6.02663 3.05545 6.14658 3.09888 6.24174 3.17818C6.33691 3.25748 6.40125 3.36763 6.42359 3.48947V6.25857C6.40714 6.38623 6.34476 6.50354 6.2481 6.58854C6.15144 6.67354 6.02713 6.72043 5.89842 6.72043C5.7697 6.72043 5.64539 6.67354 5.54873 6.58854C5.45208 6.50354 5.38969 6.38623 5.37324 6.25857L5.38192 3.48947ZM22.0486 20.1041C22.0486 20.3579 21.9985 20.6092 21.9011 20.8435C21.8037 21.0779 21.661 21.2907 21.4811 21.4698C21.3012 21.6488 21.0878 21.7906 20.853 21.8869C20.6181 21.9833 20.3666 22.0323 20.1128 22.0311H4.89581C4.64129 22.0334 4.38883 21.9853 4.15302 21.8895C3.91721 21.7936 3.70271 21.6521 3.52192 21.4729C3.34113 21.2937 3.19763 21.0805 3.0997 20.8456C3.00177 20.6106 2.95136 20.3586 2.95137 20.1041V7.50857C2.95135 7.06073 3.10731 6.62686 3.39245 6.28152C3.6776 5.93618 4.07411 5.70094 4.51387 5.61621V6.25857C4.51387 6.62693 4.6602 6.9802 4.92066 7.24066C5.18113 7.50113 5.5344 7.64746 5.90276 7.64746C6.27111 7.64746 6.62438 7.50113 6.88485 7.24066C7.14532 6.9802 7.29165 6.62693 7.29165 6.25857V5.58149H8.50692V6.25857C8.50692 6.62693 8.65325 6.9802 8.91372 7.24066C9.17419 7.50113 9.52746 7.64746 9.89581 7.64746C10.2642 7.64746 10.6174 7.50113 10.8779 7.24066C11.1384 6.9802 11.2847 6.62693 11.2847 6.25857V5.58149H13.7153V6.25857C13.7153 6.44096 13.7512 6.62157 13.821 6.79008C13.8908 6.95858 13.9931 7.11169 14.1221 7.24066C14.251 7.36964 14.4041 7.47194 14.5726 7.54174C14.7411 7.61154 14.9218 7.64746 15.1041 7.64746C15.2865 7.64746 15.4671 7.61154 15.6357 7.54174C15.8042 7.47194 15.9573 7.36964 16.0862 7.24066C16.2152 7.11169 16.3175 6.95858 16.3873 6.79008C16.4571 6.62157 16.493 6.44096 16.493 6.25857V5.58149H17.5347V6.25857C17.5347 6.62693 17.681 6.9802 17.9415 7.24066C18.202 7.50113 18.5552 7.64746 18.9236 7.64746C19.2919 7.64746 19.6452 7.50113 19.9057 7.24066C20.1662 6.9802 20.3125 6.62693 20.3125 6.25857V5.59885C20.7861 5.64794 21.225 5.86985 21.5452 6.22216C21.8655 6.57447 22.0447 7.03246 22.0486 7.50857V20.1041Z" fill="#99A2AD"/>
<path d="M11.1979 13.8105H8.59375V16.406H11.1979V13.8105Z" fill="#99A2AD"/>
<path d="M19.0104 13.8105H16.4062V16.406H19.0104V13.8105Z" fill="#99A2AD"/>
<path d="M7.30033 17.709H4.69617V20.3045H7.30033V17.709Z" fill="#99A2AD"/>
<path d="M11.1979 17.709H8.59375V20.3045H11.1979V17.709Z" fill="#99A2AD"/>
<path d="M15.1042 17.709H12.5V20.3045H15.1042V17.709Z" fill="#99A2AD"/>
<path d="M15.1042 9.91211H12.5V12.5076H15.1042V9.91211Z" fill="#99A2AD"/>
<path d="M11.1979 9.91211H8.59375V12.5076H11.1979V9.91211Z" fill="#99A2AD"/>
<path d="M19.0104 9.91211H16.4062V12.5076H19.0104V9.91211Z" fill="#99A2AD"/>
<path d="M15.1042 13.8105H12.5V16.406H15.1042V13.8105Z" fill="#99A2AD"/>
</svg>
