<svg width="245" height="30" viewBox="0 0 245 30" fill="none" xmlns="http://www.w3.org/2000/svg">
<path d="M17.16 6.6H19.496V29H17.16V6.6ZM3.144 29H0.776V6.6H3.144V29ZM17.384 18.664H2.888V16.584H17.384V18.664ZM29.1693 16.616H41.0093V18.632H29.1693V16.616ZM29.4253 26.952H42.8973V29H27.0573V6.6H42.4173V8.648H29.4253V26.952ZM48.151 29V6.6H50.487V25.16L64.823 6.6H66.967V29H64.631V10.472L50.295 29H48.151ZM57.495 4.968C55.895 4.968 54.6257 4.60533 53.687 3.88C52.7697 3.15466 52.3003 2.14133 52.279 0.839998H54.039C54.0603 1.69333 54.3803 2.36533 54.999 2.856C55.639 3.34667 56.471 3.592 57.495 3.592C58.519 3.592 59.3403 3.34667 59.959 2.856C60.599 2.36533 60.9297 1.69333 60.951 0.839998H62.711C62.6897 2.14133 62.2097 3.15466 61.271 3.88C60.3323 4.60533 59.0737 4.968 57.495 4.968ZM74.526 29V6.6H82.91C84.8087 6.6 86.4407 6.90933 87.806 7.528C89.1713 8.12533 90.2167 9 90.942 10.152C91.6887 11.2827 92.062 12.6587 92.062 14.28C92.062 15.8587 91.6887 17.224 90.942 18.376C90.2167 19.5067 89.1713 20.3813 87.806 21C86.4407 21.6187 84.8087 21.928 82.91 21.928H75.838L76.894 20.808V29H74.526ZM76.894 21L75.838 19.848H82.846C85.086 19.848 86.782 19.368 87.934 18.408C89.1073 17.4267 89.694 16.0507 89.694 14.28C89.694 12.488 89.1073 11.1013 87.934 10.12C86.782 9.13867 85.086 8.648 82.846 8.648H75.838L76.894 7.528V21ZM107.038 29.192C105.352 29.192 103.784 28.9147 102.334 28.36C100.904 27.784 99.6562 26.984 98.5895 25.96C97.5442 24.9147 96.7228 23.7093 96.1255 22.344C95.5495 20.9573 95.2615 19.4427 95.2615 17.8C95.2615 16.1573 95.5495 14.6533 96.1255 13.288C96.7228 11.9013 97.5442 10.696 98.5895 9.672C99.6562 8.62667 100.904 7.82667 102.334 7.272C103.763 6.696 105.331 6.408 107.038 6.408C108.723 6.408 110.28 6.696 111.71 7.272C113.139 7.82667 114.376 8.616 115.422 9.64C116.488 10.664 117.31 11.8693 117.886 13.256C118.483 14.6427 118.782 16.1573 118.782 17.8C118.782 19.4427 118.483 20.9573 117.886 22.344C117.31 23.7307 116.488 24.936 115.422 25.96C114.376 26.984 113.139 27.784 111.71 28.36C110.28 28.9147 108.723 29.192 107.038 29.192ZM107.038 27.08C108.382 27.08 109.619 26.856 110.75 26.408C111.902 25.9387 112.894 25.288 113.726 24.456C114.579 23.6027 115.24 22.6213 115.71 21.512C116.179 20.3813 116.414 19.144 116.414 17.8C116.414 16.456 116.179 15.2293 115.71 14.12C115.24 12.9893 114.579 12.008 113.726 11.176C112.894 10.3227 111.902 9.672 110.75 9.224C109.619 8.75467 108.382 8.52 107.038 8.52C105.694 8.52 104.446 8.75467 103.294 9.224C102.142 9.672 101.139 10.3227 100.286 11.176C99.4535 12.008 98.7922 12.9893 98.3015 14.12C97.8322 15.2293 97.5975 16.456 97.5975 17.8C97.5975 19.1227 97.8322 20.3493 98.3015 21.48C98.7922 22.6107 99.4535 23.6027 100.286 24.456C101.139 25.288 102.142 25.9387 103.294 26.408C104.446 26.856 105.694 27.08 107.038 27.08ZM134.224 29.192C132.539 29.192 130.982 28.9147 129.552 28.36C128.123 27.784 126.886 26.984 125.84 25.96C124.795 24.936 123.974 23.7307 123.376 22.344C122.8 20.9573 122.512 19.4427 122.512 17.8C122.512 16.1573 122.8 14.6427 123.376 13.256C123.974 11.8693 124.795 10.664 125.84 9.64C126.907 8.616 128.155 7.82667 129.584 7.272C131.014 6.696 132.571 6.408 134.256 6.408C135.878 6.408 137.403 6.68533 138.832 7.24C140.262 7.77333 141.467 8.584 142.448 9.672L140.944 11.176C140.027 10.2373 139.014 9.56533 137.904 9.16C136.795 8.73333 135.6 8.52 134.32 8.52C132.976 8.52 131.728 8.75467 130.576 9.224C129.424 9.672 128.422 10.3227 127.568 11.176C126.715 12.008 126.043 12.9893 125.552 14.12C125.083 15.2293 124.848 16.456 124.848 17.8C124.848 19.144 125.083 20.3813 125.552 21.512C126.043 22.6213 126.715 23.6027 127.568 24.456C128.422 25.288 129.424 25.9387 130.576 26.408C131.728 26.856 132.976 27.08 134.32 27.08C135.6 27.08 136.795 26.8667 137.904 26.44C139.014 26.0133 140.027 25.3307 140.944 24.392L142.448 25.896C141.467 26.984 140.262 27.8053 138.832 28.36C137.403 28.9147 135.867 29.192 134.224 29.192ZM151.505 29V8.008L152.145 8.648H143.633V6.6H161.713V8.648H153.233L153.841 8.008V29H151.505ZM161.449 29L171.689 6.6H174.025L184.265 29H181.769L172.361 7.976H173.321L163.913 29H161.449ZM165.481 23.016L166.185 21.096H179.209L179.913 23.016H165.481ZM191.88 29V8.008L192.52 8.648H184.008V6.6H202.088V8.648H193.608L194.216 8.008V29H191.88ZM204.892 26.792C205.98 27.2187 207.004 27.3253 207.964 27.112C208.924 26.8773 209.809 26.12 210.62 24.84L211.708 23.112L211.932 22.824L220.508 6.6H222.876L212.7 25.352C212.017 26.6533 211.207 27.624 210.268 28.264C209.351 28.904 208.369 29.2453 207.324 29.288C206.3 29.3307 205.265 29.1387 204.22 28.712L204.892 26.792ZM211.868 24.968L202.172 6.6H204.7L213.148 23.016L211.868 24.968ZM236.162 29.192C234.476 29.192 232.919 28.9147 231.49 28.36C230.06 27.784 228.823 26.984 227.778 25.96C226.732 24.936 225.911 23.7307 225.314 22.344C224.738 20.9573 224.45 19.4427 224.45 17.8C224.45 16.1573 224.738 14.6427 225.314 13.256C225.911 11.8693 226.732 10.664 227.778 9.64C228.844 8.616 230.092 7.82667 231.522 7.272C232.951 6.696 234.508 6.408 236.194 6.408C237.815 6.408 239.34 6.68533 240.77 7.24C242.199 7.77333 243.404 8.584 244.386 9.672L242.882 11.176C241.964 10.2373 240.951 9.56533 239.842 9.16C238.732 8.73333 237.538 8.52 236.258 8.52C234.914 8.52 233.666 8.75467 232.514 9.224C231.362 9.672 230.359 10.3227 229.506 11.176C228.652 12.008 227.98 12.9893 227.49 14.12C227.02 15.2293 226.786 16.456 226.786 17.8C226.786 19.144 227.02 20.3813 227.49 21.512C227.98 22.6213 228.652 23.6027 229.506 24.456C230.359 25.288 231.362 25.9387 232.514 26.408C233.666 26.856 234.914 27.08 236.258 27.08C237.538 27.08 238.732 26.8667 239.842 26.44C240.951 26.0133 241.964 25.3307 242.882 24.392L244.386 25.896C243.404 26.984 242.199 27.8053 240.77 28.36C239.34 28.9147 237.804 29.192 236.162 29.192Z" fill="white"/>
</svg>
