<svg width="20" height="20" viewBox="0 0 20 20" fill="none" xmlns="http://www.w3.org/2000/svg">
<path d="M7.61 18.5122C4.27199 18.5122 1.63375 17.929 0.371543 16.9124L0.346976 16.8926L0.324698 16.8703C0.0248632 16.5703 -0.0734033 16.1768 0.0553807 15.7908L0.06713 15.7587C0.22338 15.3679 0.606222 15.1049 1.02111 15.1024C1.87499 15.0876 2.62206 14.9859 3.30001 14.7882C2.21862 14.2853 1.46743 13.4145 1.0205 12.1541C0.870199 11.7611 0.999899 11.3253 1.34627 11.0654C1.43172 11.0012 1.52831 10.9527 1.63054 10.9201C1.02965 10.2265 0.585776 9.43715 0.33721 8.60234L0.329428 8.5764L0.324088 8.54985C0.239707 8.12764 0.428458 7.69353 0.774374 7.50661C0.919485 7.4233 1.07711 7.38011 1.23534 7.37645C1.06475 7.00902 0.940695 6.63182 0.867147 6.25234C0.662985 5.2007 0.831442 4.14647 1.36764 3.11895L1.49169 2.87084C1.59102 2.67232 1.78084 2.53286 1.99965 2.49731C2.21846 2.46191 2.44277 2.53423 2.59948 2.69094L2.82546 2.91723C4.61073 4.78887 6.20985 5.67693 8.97459 6.28453C9.09803 5.22329 9.55687 4.23681 10.2971 3.46044C11.178 2.53667 12.3543 2.01833 13.6093 2.00063H13.6175C14.5332 2.00063 15.6691 2.5234 16.356 2.89205C16.9453 2.69918 17.6553 2.40057 18.392 2.08486C18.7367 1.92312 19.1617 1.99712 19.4326 2.26812C19.6983 2.53377 19.772 2.90838 19.631 3.27245C19.5775 3.42153 19.5167 3.56786 19.4491 3.71099C19.55 3.75722 19.6423 3.81994 19.7203 3.89791C19.956 4.13366 20.0543 4.50261 19.9705 4.838L19.9615 4.86989C19.6792 5.77962 19.1369 6.52059 18.4198 6.98567C18.3 13.364 13.4968 18.5122 7.61 18.5122ZM1.49627 16.2592C2.68569 16.9321 4.95238 17.3392 7.61 17.3392C10.1651 17.3392 12.5763 16.2423 14.3992 14.2504C16.2372 12.2422 17.2493 9.57539 17.2493 6.74123V6.70934C17.2493 6.45269 17.3906 6.21846 17.6179 6.09792C18.0792 5.85363 18.4527 5.43752 18.6957 4.90545C18.4451 4.94497 18.1904 4.84441 18.0343 4.63476C17.8529 4.39107 17.8509 4.06194 18.0293 3.81612C18.1256 3.68337 18.2129 3.54528 18.2907 3.40246C17.6545 3.66964 17.0504 3.9092 16.526 4.06835C16.3354 4.12603 16.123 4.10345 15.9489 4.00625C15.0152 3.48608 14.1456 3.1751 13.6213 3.17358C11.6867 3.20318 10.1137 4.86013 10.1137 6.8691C10.1137 7.07677 10.0215 7.27147 9.86113 7.40346C9.7006 7.5353 9.49186 7.58809 9.28801 7.54781C6.10014 6.91976 4.21111 5.97799 2.24669 4.00396C1.96517 4.67855 1.88826 5.35802 2.01842 6.02895C2.15041 6.70858 2.50151 7.38958 3.03389 7.99825C3.23622 8.22927 3.26308 8.55977 3.10073 8.82054C2.93898 9.0804 2.63152 9.20186 2.33596 9.12267C2.10494 9.06072 1.89254 8.97939 1.69112 8.87486C2.10143 9.76613 2.80715 10.5904 3.69429 11.1983C3.9514 11.3746 4.05883 11.7031 3.95568 11.9973C3.85237 12.2919 3.56383 12.4816 3.25194 12.4584C2.91213 12.4332 2.61107 12.3687 2.33397 12.2599C2.83141 13.2729 3.62624 13.8303 4.85076 14.0433C5.14235 14.0941 5.3694 14.3244 5.41579 14.6163C5.46233 14.9082 5.31783 15.1975 5.05644 15.3362C4.01274 15.8895 2.872 16.1864 1.49627 16.2592Z" fill="#E5E5E5"/>
</svg>
