<svg width="345" height="600" viewBox="0 0 345 600" fill="none" xmlns="http://www.w3.org/2000/svg">
<path d="M0 300.011C0 134.581 134.842 0 300.591 0C458.593 0 588.22 122.402 600 277.148L452.702 277.148C446.923 238.802 426.834 204.054 396.463 179.87C366.092 155.686 327.685 143.854 288.94 146.746C250.196 149.638 213.979 167.041 187.55 195.465C161.122 223.889 146.435 261.233 146.435 300.011C146.435 338.788 161.122 376.132 187.55 404.556C213.979 432.98 250.196 450.383 288.94 453.275C327.685 456.167 366.092 444.335 396.463 420.151C426.834 395.967 446.923 361.219 452.702 322.873L600 322.873C588.241 477.598 458.55 600 300.591 600C134.842 600 0 465.419 0 300.011Z" fill="url(#paint0_linear_16_6)"/>
<defs>
<linearGradient id="paint0_linear_16_6" x1="0" y1="300.011" x2="600" y2="300.011" gradientUnits="userSpaceOnUse">
<stop stop-color="#FF9100"/>
<stop offset="1" stop-color="#E50A3E"/>
</linearGradient>
</defs>
</svg>
